<svg width="110" height="54" viewBox="0 0 110 54" fill="none" xmlns="http://www.w3.org/2000/svg">
    <path fill-rule="evenodd" clip-rule="evenodd" d="M54.8332 4.08337C49.365 4.08337 44.9165 8.53187 44.9165 14C44.9165 19.4682 49.365 23.9167 54.8332 23.9167C60.3013 23.9167 64.7498 19.4682 64.7498 14C64.7498 8.53187 60.3013 4.08337 54.8332 4.08337ZM54.8332 25.6667C48.4002 25.6667 43.1665 20.433 43.1665 14C43.1665 7.56704 48.4002 2.33337 54.8332 2.33337C61.2662 2.33337 66.4998 7.56704 66.4998 14C66.4998 20.433 61.2662 25.6667 54.8332 25.6667Z" fill="#3B82F6"/>
    <path fill-rule="evenodd" clip-rule="evenodd" d="M58.8363 18.3078C58.6835 18.3078 58.5295 18.2681 58.3883 18.1853L53.99 15.5615C53.7263 15.4028 53.563 15.117 53.563 14.809V9.15295C53.563 8.66995 53.955 8.27795 54.438 8.27795C54.9222 8.27795 55.313 8.66995 55.313 9.15295V14.312L59.2855 16.6803C59.6997 16.9288 59.8362 17.4655 59.5888 17.8808C59.4243 18.155 59.1338 18.3078 58.8363 18.3078Z" fill="#3B82F6"/>
    <path d="M36.7149 46H35.3589L34.6029 43.924H31.2789L30.5229 46H29.2029L32.1909 38.08H33.7269L36.7149 46ZM31.6389 42.88H34.2429L32.9469 39.184L31.6389 42.88ZM39.7874 37.3V44.32C39.7874 44.616 39.8394 44.82 39.9434 44.932C40.0474 45.044 40.2194 45.1 40.4594 45.1C40.6034 45.1 40.7234 45.092 40.8194 45.076C40.9234 45.052 41.0514 45.012 41.2034 44.956L41.0594 45.916C40.9234 45.98 40.7674 46.028 40.5914 46.06C40.4154 46.1 40.2394 46.12 40.0634 46.12C39.5274 46.12 39.1314 45.984 38.8754 45.712C38.6274 45.432 38.5034 45.004 38.5034 44.428V37.3H39.7874ZM46.3691 42.148C46.3691 41.748 46.2571 41.44 46.0331 41.224C45.8171 41 45.5171 40.888 45.1331 40.888C44.7731 40.888 44.4651 40.972 44.2091 41.14C43.9531 41.308 43.7651 41.58 43.6451 41.956L42.5651 41.5C42.7171 41.012 43.0131 40.62 43.4531 40.324C43.9011 40.028 44.4771 39.88 45.1811 39.88C45.6611 39.88 46.0851 39.96 46.4531 40.12C46.8211 40.272 47.1091 40.504 47.3171 40.816C47.5331 41.128 47.6411 41.528 47.6411 42.016V44.692C47.6411 44.988 47.7891 45.136 48.0851 45.136C48.2291 45.136 48.3691 45.116 48.5051 45.076L48.4331 45.964C48.2491 46.052 48.0171 46.096 47.7371 46.096C47.4811 46.096 47.2491 46.052 47.0411 45.964C46.8411 45.868 46.6811 45.728 46.5611 45.544C46.4491 45.352 46.3931 45.116 46.3931 44.836V44.752L46.6571 44.74C46.5851 45.052 46.4371 45.312 46.2131 45.52C45.9891 45.72 45.7291 45.872 45.4331 45.976C45.1371 46.072 44.8371 46.12 44.5331 46.12C44.1571 46.12 43.8171 46.06 43.5131 45.94C43.2171 45.82 42.9811 45.64 42.8051 45.4C42.6371 45.152 42.5531 44.848 42.5531 44.488C42.5531 44.04 42.6971 43.672 42.9851 43.384C43.2811 43.096 43.6971 42.9 44.2331 42.796L46.5611 42.34L46.5491 43.24L44.8571 43.588C44.5211 43.652 44.2691 43.744 44.1011 43.864C43.9331 43.984 43.8491 44.16 43.8491 44.392C43.8491 44.616 43.9331 44.796 44.1011 44.932C44.2771 45.06 44.5091 45.124 44.7971 45.124C44.9971 45.124 45.1891 45.1 45.3731 45.052C45.5651 45.004 45.7371 44.928 45.8891 44.824C46.0411 44.712 46.1571 44.572 46.2371 44.404C46.3251 44.228 46.3691 44.02 46.3691 43.78V42.148ZM50.3449 46V40H51.4369L51.5569 41.08C51.7169 40.688 51.9529 40.392 52.2649 40.192C52.5849 39.984 52.9769 39.88 53.4409 39.88C53.5609 39.88 53.6809 39.892 53.8009 39.916C53.9209 39.932 54.0209 39.96 54.1009 40L53.9209 41.128C53.8329 41.096 53.7329 41.072 53.6209 41.056C53.5169 41.032 53.3729 41.02 53.1889 41.02C52.9409 41.02 52.6969 41.088 52.4569 41.224C52.2169 41.352 52.0169 41.548 51.8569 41.812C51.7049 42.076 51.6289 42.412 51.6289 42.82V46H50.3449ZM55.9136 46V40H57.0536L57.1136 41.008C57.3216 40.624 57.5976 40.34 57.9416 40.156C58.2936 39.972 58.6656 39.88 59.0576 39.88C59.4896 39.88 59.8856 39.98 60.2456 40.18C60.6136 40.372 60.8896 40.664 61.0736 41.056C61.2016 40.792 61.3776 40.572 61.6016 40.396C61.8256 40.22 62.0736 40.092 62.3456 40.012C62.6176 39.924 62.8856 39.88 63.1496 39.88C63.5336 39.88 63.8936 39.96 64.2296 40.12C64.5656 40.28 64.8376 40.524 65.0456 40.852C65.2536 41.18 65.3576 41.6 65.3576 42.112V46H64.0736V42.316C64.0736 41.828 63.9576 41.476 63.7256 41.26C63.4936 41.044 63.1976 40.936 62.8376 40.936C62.5576 40.936 62.2976 41.004 62.0576 41.14C61.8256 41.276 61.6376 41.48 61.4936 41.752C61.3496 42.016 61.2776 42.344 61.2776 42.736V46H59.9936V42.316C59.9936 41.828 59.8776 41.476 59.6456 41.26C59.4136 41.044 59.1176 40.936 58.7576 40.936C58.5176 40.936 58.2776 41 58.0376 41.128C57.7976 41.256 57.5976 41.456 57.4376 41.728C57.2776 42 57.1976 42.36 57.1976 42.808V46H55.9136ZM71.3723 42.148C71.3723 41.748 71.2603 41.44 71.0363 41.224C70.8203 41 70.5203 40.888 70.1363 40.888C69.7763 40.888 69.4683 40.972 69.2123 41.14C68.9563 41.308 68.7683 41.58 68.6483 41.956L67.5683 41.5C67.7203 41.012 68.0163 40.62 68.4563 40.324C68.9043 40.028 69.4803 39.88 70.1843 39.88C70.6643 39.88 71.0883 39.96 71.4563 40.12C71.8243 40.272 72.1123 40.504 72.3203 40.816C72.5363 41.128 72.6443 41.528 72.6443 42.016V44.692C72.6443 44.988 72.7923 45.136 73.0883 45.136C73.2323 45.136 73.3723 45.116 73.5083 45.076L73.4363 45.964C73.2523 46.052 73.0203 46.096 72.7403 46.096C72.4843 46.096 72.2523 46.052 72.0443 45.964C71.8443 45.868 71.6843 45.728 71.5643 45.544C71.4523 45.352 71.3963 45.116 71.3963 44.836V44.752L71.6603 44.74C71.5883 45.052 71.4403 45.312 71.2163 45.52C70.9923 45.72 70.7323 45.872 70.4363 45.976C70.1403 46.072 69.8403 46.12 69.5363 46.12C69.1603 46.12 68.8203 46.06 68.5163 45.94C68.2203 45.82 67.9843 45.64 67.8083 45.4C67.6403 45.152 67.5563 44.848 67.5563 44.488C67.5563 44.04 67.7003 43.672 67.9883 43.384C68.2843 43.096 68.7003 42.9 69.2363 42.796L71.5643 42.34L71.5523 43.24L69.8603 43.588C69.5243 43.652 69.2723 43.744 69.1043 43.864C68.9363 43.984 68.8523 44.16 68.8523 44.392C68.8523 44.616 68.9363 44.796 69.1043 44.932C69.2803 45.06 69.5123 45.124 69.8003 45.124C70.0003 45.124 70.1923 45.1 70.3763 45.052C70.5683 45.004 70.7403 44.928 70.8923 44.824C71.0443 44.712 71.1603 44.572 71.2403 44.404C71.3283 44.228 71.3723 44.02 71.3723 43.78V42.148ZM77.628 46.12C77.028 46.12 76.48 46.004 75.984 45.772C75.488 45.54 75.096 45.212 74.808 44.788L75.696 44.02C75.872 44.348 76.124 44.612 76.452 44.812C76.788 45.004 77.188 45.1 77.652 45.1C78.02 45.1 78.312 45.036 78.528 44.908C78.744 44.78 78.852 44.6 78.852 44.368C78.852 44.216 78.8 44.084 78.696 43.972C78.6 43.852 78.412 43.76 78.132 43.696L76.872 43.432C76.232 43.304 75.776 43.1 75.504 42.82C75.232 42.532 75.096 42.168 75.096 41.728C75.096 41.4 75.192 41.096 75.384 40.816C75.576 40.536 75.856 40.312 76.224 40.144C76.6 39.968 77.048 39.88 77.568 39.88C78.168 39.88 78.68 39.988 79.104 40.204C79.528 40.412 79.852 40.712 80.076 41.104L79.188 41.848C79.036 41.528 78.812 41.292 78.516 41.14C78.22 40.98 77.912 40.9 77.592 40.9C77.336 40.9 77.116 40.932 76.932 40.996C76.748 41.06 76.608 41.148 76.512 41.26C76.416 41.372 76.368 41.504 76.368 41.656C76.368 41.816 76.428 41.956 76.548 42.076C76.668 42.196 76.884 42.288 77.196 42.352L78.564 42.64C79.14 42.752 79.544 42.944 79.776 43.216C80.016 43.48 80.136 43.804 80.136 44.188C80.136 44.572 80.036 44.912 79.836 45.208C79.636 45.496 79.348 45.72 78.972 45.88C78.596 46.04 78.148 46.12 77.628 46.12Z" fill="#3B82F6"/>
</svg>
