<svg width="111" height="54" viewBox="0 0 111 54" fill="none" xmlns="http://www.w3.org/2000/svg">
    <path fill-rule="evenodd" clip-rule="evenodd" d="M49.8081 20.4895C49.3251 20.4895 48.9331 20.0975 48.9331 19.6145V11.6112C48.9331 11.1282 49.3251 10.7362 49.8081 10.7362C50.2911 10.7362 50.6831 11.1282 50.6831 11.6112V19.6145C50.6831 20.0975 50.2911 20.4895 49.8081 20.4895Z" fill="#19191B"/>
    <path fill-rule="evenodd" clip-rule="evenodd" d="M55.2529 20.4884C54.7699 20.4884 54.3779 20.0964 54.3779 19.6134V7.77991C54.3779 7.29691 54.7699 6.90491 55.2529 6.90491C55.7359 6.90491 56.1279 7.29691 56.1279 7.77991V19.6134C56.1279 20.0964 55.7359 20.4884 55.2529 20.4884Z" fill="#19191B"/>
    <path fill-rule="evenodd" clip-rule="evenodd" d="M60.6082 20.4883C60.1252 20.4883 59.7332 20.0963 59.7332 19.6133V15.8403C59.7332 15.3573 60.1252 14.9653 60.6082 14.9653C61.0912 14.9653 61.4832 15.3573 61.4832 15.8403V19.6133C61.4832 20.0963 61.0912 20.4883 60.6082 20.4883Z" fill="#19191B"/>
    <path fill-rule="evenodd" clip-rule="evenodd" d="M49.7414 2.91663C46.5074 2.91663 44.4167 5.12979 44.4167 8.55746V18.8591C44.4167 22.2868 46.5074 24.5 49.7414 24.5H60.6754C63.9106 24.5 66.0001 22.2868 66.0001 18.8591V8.55746C66.0001 5.12979 63.9106 2.91663 60.6754 2.91663H49.7414ZM60.6754 26.25H49.7414C45.5099 26.25 42.6667 23.2796 42.6667 18.8591V8.55746C42.6667 4.13696 45.5099 1.16663 49.7414 1.16663H60.6754C64.9069 1.16663 67.7501 4.13696 67.7501 8.55746V18.8591C67.7501 23.2796 64.9069 26.25 60.6754 26.25Z" fill="#19191B"/>
    <path d="M35.9653 38.08V46H34.6693V38.08H35.9653ZM30.7573 38.08V46H29.4733V38.08H30.7573ZM35.3173 41.44V42.544H30.1213V41.44H35.3173ZM39.3772 38.992C39.0972 38.992 38.8812 38.924 38.7292 38.788C38.5852 38.644 38.5132 38.444 38.5132 38.188C38.5132 37.932 38.5852 37.736 38.7292 37.6C38.8812 37.464 39.0972 37.396 39.3772 37.396C39.6492 37.396 39.8572 37.464 40.0012 37.6C40.1532 37.736 40.2292 37.932 40.2292 38.188C40.2292 38.444 40.1532 38.644 40.0012 38.788C39.8572 38.924 39.6492 38.992 39.3772 38.992ZM40.0132 40V46H38.7292V40H40.0132ZM44.9022 46.12C44.3022 46.12 43.7542 46.004 43.2582 45.772C42.7622 45.54 42.3702 45.212 42.0822 44.788L42.9702 44.02C43.1462 44.348 43.3982 44.612 43.7262 44.812C44.0622 45.004 44.4622 45.1 44.9262 45.1C45.2942 45.1 45.5862 45.036 45.8022 44.908C46.0182 44.78 46.1262 44.6 46.1262 44.368C46.1262 44.216 46.0742 44.084 45.9702 43.972C45.8742 43.852 45.6862 43.76 45.4062 43.696L44.1462 43.432C43.5062 43.304 43.0502 43.1 42.7782 42.82C42.5062 42.532 42.3702 42.168 42.3702 41.728C42.3702 41.4 42.4662 41.096 42.6582 40.816C42.8502 40.536 43.1302 40.312 43.4982 40.144C43.8742 39.968 44.3222 39.88 44.8422 39.88C45.4422 39.88 45.9542 39.988 46.3782 40.204C46.8022 40.412 47.1262 40.712 47.3502 41.104L46.4622 41.848C46.3102 41.528 46.0862 41.292 45.7902 41.14C45.4942 40.98 45.1862 40.9 44.8662 40.9C44.6102 40.9 44.3902 40.932 44.2062 40.996C44.0222 41.06 43.8822 41.148 43.7862 41.26C43.6902 41.372 43.6422 41.504 43.6422 41.656C43.6422 41.816 43.7022 41.956 43.8222 42.076C43.9422 42.196 44.1582 42.288 44.4702 42.352L45.8382 42.64C46.4142 42.752 46.8182 42.944 47.0502 43.216C47.2902 43.48 47.4102 43.804 47.4102 44.188C47.4102 44.572 47.3102 44.912 47.1102 45.208C46.9102 45.496 46.6222 45.72 46.2462 45.88C45.8702 46.04 45.4222 46.12 44.9022 46.12ZM51.3257 38.236V44.2C51.3257 44.496 51.4017 44.712 51.5537 44.848C51.7137 44.984 51.9257 45.052 52.1897 45.052C52.4057 45.052 52.5937 45.02 52.7537 44.956C52.9137 44.884 53.0617 44.788 53.1977 44.668L53.4857 45.604C53.3017 45.764 53.0737 45.892 52.8017 45.988C52.5377 46.076 52.2417 46.12 51.9137 46.12C51.5697 46.12 51.2537 46.064 50.9657 45.952C50.6777 45.84 50.4537 45.66 50.2937 45.412C50.1337 45.156 50.0497 44.824 50.0417 44.416V38.596L51.3257 38.236ZM53.3897 40V41.008H48.8897V40H53.3897ZM57.8637 39.88C58.4477 39.88 58.9637 40.004 59.4117 40.252C59.8597 40.5 60.2077 40.86 60.4557 41.332C60.7117 41.796 60.8397 42.352 60.8397 43C60.8397 43.648 60.7117 44.208 60.4557 44.68C60.2077 45.144 59.8597 45.5 59.4117 45.748C58.9637 45.996 58.4477 46.12 57.8637 46.12C57.2797 46.12 56.7637 45.996 56.3157 45.748C55.8677 45.5 55.5157 45.144 55.2597 44.68C55.0037 44.208 54.8757 43.648 54.8757 43C54.8757 42.352 55.0037 41.796 55.2597 41.332C55.5157 40.86 55.8677 40.5 56.3157 40.252C56.7637 40.004 57.2797 39.88 57.8637 39.88ZM57.8637 40.888C57.5037 40.888 57.1957 40.972 56.9397 41.14C56.6917 41.3 56.4997 41.536 56.3637 41.848C56.2277 42.16 56.1597 42.544 56.1597 43C56.1597 43.448 56.2277 43.832 56.3637 44.152C56.4997 44.464 56.6917 44.704 56.9397 44.872C57.1957 45.032 57.5037 45.112 57.8637 45.112C58.2237 45.112 58.5277 45.032 58.7757 44.872C59.0237 44.704 59.2157 44.464 59.3517 44.152C59.4877 43.832 59.5557 43.448 59.5557 43C59.5557 42.544 59.4877 42.16 59.3517 41.848C59.2157 41.536 59.0237 41.3 58.7757 41.14C58.5277 40.972 58.2237 40.888 57.8637 40.888ZM63.055 46V40H64.147L64.267 41.08C64.427 40.688 64.663 40.392 64.975 40.192C65.295 39.984 65.687 39.88 66.151 39.88C66.271 39.88 66.391 39.892 66.511 39.916C66.631 39.932 66.731 39.96 66.811 40L66.631 41.128C66.543 41.096 66.443 41.072 66.331 41.056C66.227 41.032 66.083 41.02 65.899 41.02C65.651 41.02 65.407 41.088 65.167 41.224C64.927 41.352 64.727 41.548 64.567 41.812C64.415 42.076 64.339 42.412 64.339 42.82V46H63.055ZM69.2717 38.992C68.9917 38.992 68.7757 38.924 68.6237 38.788C68.4797 38.644 68.4077 38.444 68.4077 38.188C68.4077 37.932 68.4797 37.736 68.6237 37.6C68.7757 37.464 68.9917 37.396 69.2717 37.396C69.5437 37.396 69.7517 37.464 69.8957 37.6C70.0477 37.736 70.1237 37.932 70.1237 38.188C70.1237 38.444 70.0477 38.644 69.8957 38.788C69.7517 38.924 69.5437 38.992 69.2717 38.992ZM69.9077 40V46H68.6237V40H69.9077ZM75.9847 42.148C75.9847 41.748 75.8727 41.44 75.6487 41.224C75.4327 41 75.1327 40.888 74.7487 40.888C74.3887 40.888 74.0807 40.972 73.8247 41.14C73.5687 41.308 73.3807 41.58 73.2607 41.956L72.1807 41.5C72.3327 41.012 72.6287 40.62 73.0687 40.324C73.5167 40.028 74.0927 39.88 74.7967 39.88C75.2767 39.88 75.7007 39.96 76.0687 40.12C76.4367 40.272 76.7247 40.504 76.9327 40.816C77.1487 41.128 77.2567 41.528 77.2567 42.016V44.692C77.2567 44.988 77.4047 45.136 77.7007 45.136C77.8447 45.136 77.9847 45.116 78.1207 45.076L78.0487 45.964C77.8647 46.052 77.6327 46.096 77.3527 46.096C77.0967 46.096 76.8647 46.052 76.6567 45.964C76.4567 45.868 76.2967 45.728 76.1767 45.544C76.0647 45.352 76.0087 45.116 76.0087 44.836V44.752L76.2727 44.74C76.2007 45.052 76.0527 45.312 75.8287 45.52C75.6047 45.72 75.3447 45.872 75.0487 45.976C74.7527 46.072 74.4527 46.12 74.1487 46.12C73.7727 46.12 73.4327 46.06 73.1287 45.94C72.8327 45.82 72.5967 45.64 72.4207 45.4C72.2527 45.152 72.1687 44.848 72.1687 44.488C72.1687 44.04 72.3127 43.672 72.6007 43.384C72.8967 43.096 73.3127 42.9 73.8487 42.796L76.1767 42.34L76.1647 43.24L74.4727 43.588C74.1367 43.652 73.8847 43.744 73.7167 43.864C73.5487 43.984 73.4647 44.16 73.4647 44.392C73.4647 44.616 73.5487 44.796 73.7167 44.932C73.8927 45.06 74.1247 45.124 74.4127 45.124C74.6127 45.124 74.8047 45.1 74.9887 45.052C75.1807 45.004 75.3527 44.928 75.5047 44.824C75.6567 44.712 75.7727 44.572 75.8527 44.404C75.9407 44.228 75.9847 44.02 75.9847 43.78V42.148ZM81.2085 37.3V44.32C81.2085 44.616 81.2605 44.82 81.3645 44.932C81.4685 45.044 81.6405 45.1 81.8805 45.1C82.0245 45.1 82.1445 45.092 82.2405 45.076C82.3445 45.052 82.4725 45.012 82.6245 44.956L82.4805 45.916C82.3445 45.98 82.1885 46.028 82.0125 46.06C81.8365 46.1 81.6605 46.12 81.4845 46.12C80.9485 46.12 80.5525 45.984 80.2965 45.712C80.0485 45.432 79.9245 45.004 79.9245 44.428V37.3H81.2085Z" fill="#61646B"/>
</svg>
