<svg width="119" height="54" viewBox="0 0 119 54" fill="none" xmlns="http://www.w3.org/2000/svg">
    <path fill-rule="evenodd" clip-rule="evenodd" d="M57.0934 21.6915H49.7422C49.2592 21.6915 48.8672 21.2995 48.8672 20.8165C48.8672 20.3335 49.2592 19.9415 49.7422 19.9415H57.0934C57.5764 19.9415 57.9684 20.3335 57.9684 20.8165C57.9684 21.2995 57.5764 21.6915 57.0934 21.6915Z" fill="black"/>
    <path fill-rule="evenodd" clip-rule="evenodd" d="M67.7226 10.3838H60.3726C59.8896 10.3838 59.4976 9.99179 59.4976 9.50879C59.4976 9.02579 59.8896 8.63379 60.3726 8.63379H67.7226C68.2056 8.63379 68.5976 9.02579 68.5976 9.50879C68.5976 9.99179 68.2056 10.3838 67.7226 10.3838Z" fill="black"/>
    <mask id="mask0_2323_1726" style="mask-type:luminance" maskUnits="userSpaceOnUse" x="48" y="5" width="9" height="9">
        <path fill-rule="evenodd" clip-rule="evenodd" d="M48.8333 5.83374H56.0967V13.0573H48.8333V5.83374Z" fill="white"/>
    </mask>
    <g mask="url(#mask0_2323_1726)">
        <path fill-rule="evenodd" clip-rule="evenodd" d="M52.4648 7.58325C51.4277 7.58325 50.583 8.41859 50.583 9.44642C50.583 10.4731 51.4277 11.3073 52.4648 11.3073C53.5032 11.3073 54.3467 10.4731 54.3467 9.44642C54.3467 8.41859 53.5032 7.58325 52.4648 7.58325ZM52.4648 13.0573C50.4628 13.0573 48.833 11.4379 48.833 9.44642C48.833 7.45492 50.4628 5.83325 52.4648 5.83325C54.468 5.83325 56.0967 7.45492 56.0967 9.44642C56.0967 11.4379 54.468 13.0573 52.4648 13.0573Z" fill="black"/>
    </g>
    <path fill-rule="evenodd" clip-rule="evenodd" d="M65.6188 18.9093C64.5805 18.9093 63.7358 19.7446 63.7358 20.7713C63.7358 21.7991 64.5805 22.6333 65.6188 22.6333C66.656 22.6333 67.4995 21.7991 67.4995 20.7713C67.4995 19.7446 66.656 18.9093 65.6188 18.9093ZM65.6188 24.3833C63.6157 24.3833 61.9858 22.7628 61.9858 20.7713C61.9858 18.7798 63.6157 17.1593 65.6188 17.1593C67.6208 17.1593 69.2495 18.7798 69.2495 20.7713C69.2495 22.7628 67.6208 24.3833 65.6188 24.3833Z" fill="black"/>
    <path d="M55.3563 38.08V46H54.0603V38.08H55.3563ZM50.1483 38.08V46H48.8643V38.08H50.1483ZM54.7083 41.44V42.544H49.5123V41.44H54.7083ZM60.6422 39.88C61.2262 39.88 61.7422 40.004 62.1902 40.252C62.6382 40.5 62.9862 40.86 63.2342 41.332C63.4902 41.796 63.6182 42.352 63.6182 43C63.6182 43.648 63.4902 44.208 63.2342 44.68C62.9862 45.144 62.6382 45.5 62.1902 45.748C61.7422 45.996 61.2262 46.12 60.6422 46.12C60.0582 46.12 59.5422 45.996 59.0942 45.748C58.6462 45.5 58.2942 45.144 58.0382 44.68C57.7822 44.208 57.6542 43.648 57.6542 43C57.6542 42.352 57.7822 41.796 58.0382 41.332C58.2942 40.86 58.6462 40.5 59.0942 40.252C59.5422 40.004 60.0582 39.88 60.6422 39.88ZM60.6422 40.888C60.2822 40.888 59.9742 40.972 59.7182 41.14C59.4702 41.3 59.2782 41.536 59.1422 41.848C59.0062 42.16 58.9382 42.544 58.9382 43C58.9382 43.448 59.0062 43.832 59.1422 44.152C59.2782 44.464 59.4702 44.704 59.7182 44.872C59.9742 45.032 60.2822 45.112 60.6422 45.112C61.0022 45.112 61.3062 45.032 61.5542 44.872C61.8022 44.704 61.9942 44.464 62.1302 44.152C62.2662 43.832 62.3342 43.448 62.3342 43C62.3342 42.544 62.2662 42.16 62.1302 41.848C61.9942 41.536 61.8022 41.3 61.5542 41.14C61.3062 40.972 61.0022 40.888 60.6422 40.888ZM70.8789 40L68.2509 46.708C68.0749 47.172 67.8829 47.54 67.6749 47.812C67.4749 48.084 67.2429 48.28 66.9789 48.4C66.7149 48.52 66.4069 48.58 66.0549 48.58C65.7669 48.58 65.4989 48.54 65.2509 48.46C65.0109 48.388 64.7989 48.288 64.6149 48.16L64.9269 47.164C65.0789 47.292 65.2389 47.388 65.4069 47.452C65.5829 47.516 65.7709 47.548 65.9709 47.548C66.1869 47.548 66.3789 47.488 66.5469 47.368C66.7229 47.256 66.8789 47.028 67.0149 46.684L67.2789 46.036L66.6429 44.548L64.7709 40H66.2109L67.5429 43.768L67.8909 44.896L68.2869 43.66L69.5469 40H70.8789Z" fill="#61646B"/>
</svg>